<svg width="803" height="242" xmlns="http://www.w3.org/2000/svg" xmlns:xlink="http://www.w3.org/1999/xlink" xml:space="preserve" overflow="hidden"><g transform="translate(-474 -159)"><path d="M497.305 189.058C450.768 223.359 383.313 241.661 325.237 241.661 243.806 241.661 170.496 211.543 115.033 161.449 110.676 157.51 114.58 152.141 119.809 155.208 179.664 190.034 253.671 210.984 330.117 210.984 381.675 210.984 438.392 200.317 490.542 178.181 498.42 174.836 505.009 183.34 497.305 189.058" fill="#FF9900" transform="matrix(1.00151 0 0 1 474 159)"/><path d="M516.653 166.921C510.726 159.322 477.33 163.331 462.341 165.109 457.775 165.668 457.077 161.693 461.191 158.834 487.788 140.115 531.433 145.518 536.522 151.792 541.612 158.102 535.198 201.852 510.204 222.733 506.369 225.939 502.708 224.232 504.417 219.978 510.03 205.965 522.614 174.556 516.653 166.921" fill="#FF9900" transform="matrix(1.00151 0 0 1 474 159)"/><path d="M463.386 26.6812 463.386 8.48435C463.386 5.73043 465.478 3.88286 467.988 3.88286L549.456 3.88286C552.07 3.88286 554.161 5.76529 554.161 8.48435L554.161 24.0666C554.127 26.6812 551.93 30.0974 548.026 35.5006L505.811 95.7732C521.498 95.3898 538.056 97.7253 552.279 105.743 555.486 107.556 556.358 110.205 556.601 112.82L556.601 132.237C556.601 134.886 553.673 137.988 550.606 136.384 525.542 123.243 492.251 121.813 464.538 136.524 461.713 138.058 458.751 134.991 458.751 132.341L458.751 113.9C458.751 110.937 458.785 105.883 461.748 101.386L510.656 31.2478 468.093 31.2478C465.478 31.2478 463.386 29.4002 463.386 26.6812" fill="#221F1F" transform="matrix(1.00151 0 0 1 474 159)"/><path d="M166.207 140.219 141.422 140.219C139.052 140.045 137.169 138.267 136.995 136.001L136.995 8.79811C136.995 6.25335 139.121 4.23146 141.771 4.23146L164.883 4.23146C167.288 4.33598 169.205 6.1836 169.38 8.48435L169.38 25.1124 169.832 25.1124C175.864 9.0421 187.192 1.54726 202.461 1.54726 217.974 1.54726 227.665 9.0421 234.636 25.1124 240.633 9.0421 254.264 1.54726 268.869 1.54726 279.257 1.54726 290.622 5.83501 297.559 15.4564 305.403 26.1582 303.799 41.7056 303.799 55.3358L303.765 135.618C303.765 138.162 301.637 140.219 298.988 140.219L274.238 140.219C271.762 140.045 269.775 138.058 269.775 135.618L269.775 68.1991C269.775 62.8308 270.263 49.4446 269.079 44.355 267.23 35.8144 261.688 33.409 254.507 33.409 248.511 33.409 242.237 37.418 239.692 43.8322 237.147 50.2464 237.391 60.9831 237.391 68.1991L237.391 135.618C237.391 138.162 235.264 140.219 232.615 140.219L207.865 140.219C205.354 140.045 203.402 138.058 203.402 135.618L203.368 68.1991C203.368 54.0112 205.704 33.1302 188.099 33.1302 170.286 33.1302 170.984 53.4882 170.984 68.1991L170.984 135.618C170.984 138.162 168.856 140.219 166.207 140.219" fill="#221F1F" transform="matrix(1.00151 0 0 1 474 159)"/><path d="M624.299 1.54726C661.076 1.54726 680.981 33.1302 680.981 73.2886 680.981 112.087 658.985 142.869 624.299 142.869 588.185 142.869 568.523 111.286 568.523 71.9292 568.523 32.3284 588.428 1.54726 624.299 1.54726M624.509 27.5178C606.242 27.5178 605.092 52.4076 605.092 67.9202 605.092 83.4677 604.847 116.654 624.299 116.654 643.507 116.654 644.414 89.8819 644.414 73.5675 644.414 62.8308 643.961 50.0024 640.719 39.8232 637.929 30.969 632.387 27.5178 624.509 27.5178" fill="#221F1F" transform="matrix(1.00151 0 0 1 474 159)"/><path d="M728.67 140.219 703.989 140.219C701.514 140.045 699.526 138.058 699.526 135.618L699.492 8.37977C699.7 6.04416 701.757 4.23146 704.268 4.23146L727.241 4.23146C729.401 4.33598 731.179 5.80016 731.667 7.78716L731.667 27.239 732.12 27.239C739.057 9.84388 748.784 1.54726 765.899 1.54726 777.019 1.54726 787.862 5.55613 794.833 16.537 801.318 26.716 801.318 43.8322 801.318 56.1376L801.318 136.21C801.039 138.441 798.982 140.219 796.542 140.219L771.686 140.219C769.42 140.045 767.538 138.372 767.294 136.21L767.294 67.1184C767.294 53.2094 768.898 32.8514 751.781 32.8514 745.751 32.8514 740.208 36.895 737.454 43.0304 733.969 50.804 733.515 58.543 733.515 67.1184L733.515 135.618C733.481 138.162 731.319 140.219 728.67 140.219" fill="#221F1F" transform="matrix(1.00151 0 0 1 474 159)"/><path d="M73.5152 79.4588 73.5152 74.0904C55.5972 74.0904 36.6683 77.9251 36.6683 99.0499 36.6683 109.752 42.211 117.003 51.7278 117.003 58.6998 117.003 64.9396 112.715 68.8788 105.743 73.7592 97.1675 73.5152 89.1149 73.5152 79.4588M98.5096 139.871C96.8711 141.335 94.5007 141.44 92.6532 140.464 84.4262 133.631 82.9621 130.459 78.4303 123.94 64.8351 137.814 55.2138 141.962 37.5748 141.962 16.7286 141.962 0.48396 129.099 0.48396 103.338 0.48396 83.2237 11.3951 69.5238 26.9076 62.8308 40.3635 56.9046 59.1529 55.8588 73.5152 54.2204L73.5152 51.0132C73.5152 45.122 73.9684 38.15 70.5172 33.0605 67.4844 28.4939 61.6976 26.6114 56.6082 26.6114 47.1611 26.6114 38.7251 31.4569 36.6683 41.4965 36.25 43.7275 34.6117 45.9238 32.3807 46.0283L8.32741 43.4487C6.30554 42.9956 4.07451 41.3571 4.63227 38.2546 10.175 9.11185 36.4941 0.327165 60.0593 0.327165 72.1208 0.327165 87.8774 3.53426 97.3941 12.6675 109.456 23.9273 108.305 38.9518 108.305 55.301L108.305 93.9256C108.305 105.534 113.116 110.623 117.648 116.898 119.251 119.129 119.6 121.813 117.578 123.487 112.523 127.705 103.529 135.548 98.5794 139.941L98.5096 139.871" fill="#221F1F" transform="matrix(1.00151 0 0 1 799.417 159)"/><path d="M73.5152 79.4588 73.5152 74.0904C55.5972 74.0904 36.6683 77.9251 36.6683 99.0499 36.6683 109.752 42.211 117.003 51.7278 117.003 58.6998 117.003 64.9396 112.715 68.8788 105.743 73.7592 97.1675 73.5152 89.1149 73.5152 79.4588M98.5096 139.871C96.8711 141.335 94.5007 141.44 92.6532 140.464 84.4262 133.631 82.9621 130.459 78.4303 123.94 64.8351 137.814 55.2138 141.962 37.5748 141.962 16.7286 141.962 0.48396 129.099 0.48396 103.338 0.48396 83.2237 11.3951 69.5238 26.9076 62.8308 40.3635 56.9046 59.1529 55.8588 73.5152 54.2204L73.5152 51.0132C73.5152 45.122 73.9684 38.15 70.5172 33.0605 67.4844 28.4939 61.6976 26.6114 56.6082 26.6114 47.1611 26.6114 38.7251 31.4569 36.6683 41.4965 36.25 43.7275 34.6117 45.9238 32.3807 46.0283L8.32741 43.4487C6.30554 42.9956 4.07451 41.3571 4.63227 38.2546 10.175 9.11185 36.4941 0.327165 60.0593 0.327165 72.1208 0.327165 87.8774 3.53426 97.3941 12.6675 109.456 23.9273 108.305 38.9518 108.305 55.301L108.305 93.9256C108.305 105.534 113.116 110.623 117.648 116.898 119.251 119.129 119.6 121.813 117.578 123.487 112.523 127.705 103.529 135.548 98.5794 139.941L98.5096 139.871" fill="#221F1F" transform="matrix(1.00151 0 0 1 474 159)"/></g></svg>