<svg width="297" height="298" xmlns="http://www.w3.org/2000/svg" xmlns:xlink="http://www.w3.org/1999/xlink" xml:space="preserve" overflow="hidden"><g transform="translate(-500 -86)"><path d="M165.825 164.897C176.344 173.25 186.244 187.791 193.669 204.188L103.331 204.188C111.066 187.791 120.656 172.941 131.175 164.897 136.125 160.875 139.219 154.997 139.219 148.5 139.219 142.003 136.125 136.125 131.175 132.103 110.137 115.706 91.8844 73.6312 88.7906 43.3125L208.519 43.3125C205.116 73.6312 187.172 115.706 166.134 132.103 160.875 136.125 157.781 142.003 157.781 148.5 157.781 154.997 160.875 160.875 165.825 164.897ZM226.772 43.3125 235.125 43.3125 235.125 24.75 61.875 24.75 61.875 43.3125 69.9188 43.3125C73.3219 77.6531 93.1219 127.772 121.894 148.5 93.1219 169.228 73.0125 219.347 69.9188 253.688L61.875 253.688 61.875 272.25 235.125 272.25 235.125 253.688 226.772 253.688C223.678 219.347 203.569 169.228 174.797 148.5 203.569 127.772 223.678 77.6531 226.772 43.3125Z" stroke="#4472C4" stroke-width="3.09375" fill="#4472C4" transform="matrix(1 0 0 1.00337 500 86)"/></g></svg>